<?xml version="1.0" standalone="no"?>
<!DOCTYPE svg PUBLIC "-//W3C//DTD SVG 20010904//EN"
 "http://www.w3.org/TR/2001/REC-SVG-20010904/DTD/svg10.dtd">
<svg version="1.0" xmlns="http://www.w3.org/2000/svg"
 width="297.000000pt" height="297.000000pt" viewBox="0 0 297.000000 297.000000"
 preserveAspectRatio="xMidYMid meet">
<metadata>
Created by potrace 1.11, written by Peter Selinger 2001-2013
</metadata>
<g transform="translate(0.000000,297.000000) scale(0.100000,-0.100000)"
fill="#000000" stroke="none">
<path d="M1370 2880 c-80 -10 -152 -30 -239 -69 -36 -17 -142 -60 -235 -96
-93 -37 -187 -78 -209 -92 -59 -37 -141 -117 -192 -187 -24 -34 -58 -74 -75
-91 -18 -16 -49 -54 -69 -85 -20 -30 -39 -56 -43 -58 -10 -4 -33 -53 -53 -112
-9 -26 -20 -112 -26 -210 -7 -111 -17 -188 -31 -235 -27 -89 -48 -200 -48
-246 0 -53 21 -105 77 -190 27 -42 60 -105 73 -140 13 -35 34 -81 46 -101 24
-37 82 -88 102 -88 6 0 23 -20 37 -45 35 -59 85 -102 137 -116 46 -12 51 -16
116 -99 59 -76 159 -176 199 -201 18 -11 33 -23 33 -26 0 -3 -24 -31 -53 -63
-57 -62 -126 -161 -183 -265 l-36 -65 907 0 907 0 -27 48 c-61 106 -162 250
-207 295 l-48 47 43 37 c73 64 197 196 240 257 59 82 83 129 111 221 36 116
47 189 47 321 0 110 1 118 29 168 23 40 31 71 36 127 17 206 -82 370 -260 429
-25 8 -51 32 -91 85 l-57 73 13 77 c15 89 5 158 -36 242 -24 48 -46 72 -217
235 -61 59 -151 110 -250 142 -80 26 -357 87 -386 85 -9 -1 -46 -5 -82 -9z"/>
<path d="M2926 21 c-4 -7 -5 -15 -2 -18 9 -9 19 4 14 18 -4 11 -6 11 -12 0z"/>
</g>
</svg>
